<?xml version="1.0" encoding="UTF-8" standalone="no"?>
<!DOCTYPE svg PUBLIC "-//W3C//DTD SVG 1.1//EN" "http://www.w3.org/Graphics/SVG/1.1/DTD/svg11.dtd">
<svg version="1.1" xmlns="http://www.w3.org/2000/svg" xmlns:xlink="http://www.w3.org/1999/xlink" preserveAspectRatio="xMidYMid meet" viewBox="0 0 640 640" width="640" height="640"><defs><path d="M333.1 140.53L339.55 141.19L345.92 142.1L352.2 143.26L358.4 144.66L364.51 146.3L370.52 148.17L376.42 150.27L382.22 152.59L387.9 155.13L393.47 157.89L398.91 160.85L404.22 164.01L409.39 167.36L414.43 170.91L419.32 174.65L424.07 178.56L428.66 182.65L433.08 186.92L437.35 191.34L441.44 195.93L445.35 200.68L449.09 205.57L452.64 210.61L455.99 215.78L459.15 221.09L462.11 226.53L464.87 232.1L467.41 237.78L469.73 243.58L471.83 249.48L473.7 255.49L475.34 261.6L476.74 267.8L477.9 274.08L478.81 280.45L479.47 286.9L479.87 293.42L480 300L480 480L520 480L520.43 480.01L520.87 480.03L521.3 480.08L521.74 480.14L522.18 480.21L522.62 480.31L523.07 480.42L523.52 480.55L523.96 480.69L524.42 480.85L524.87 481.03L525.33 481.23L525.78 481.44L526.24 481.67L526.71 481.92L527.17 482.19L527.64 482.47L528.11 482.77L528.58 483.08L529.05 483.42L529.53 483.77L530 484.14L530.48 484.52L530.97 484.92L531.45 485.34L531.94 485.78L532.42 486.23L532.92 486.7L533.41 487.19L533.9 487.69L534.4 488.21L534.9 488.75L535.4 489.31L535.91 489.88L536.41 490.47L536.92 491.07L537.43 491.7L537.94 492.34L538.46 493L538.98 493.67L578.97 613.67L579.12 614.13L579.26 614.59L579.38 615.05L579.49 615.52L579.59 615.98L579.68 616.45L579.76 616.92L579.83 617.39L579.89 617.86L579.93 618.33L579.96 618.8L579.99 619.27L580 619.74L580 620.21L579.99 620.68L579.97 621.15L579.93 621.62L579.89 622.08L579.84 622.55L579.77 623.01L579.69 623.48L579.61 623.94L579.51 624.4L579.4 624.86L579.28 625.31L579.15 625.76L579.01 626.21L578.86 626.66L578.7 627.1L578.52 627.54L578.34 627.97L578.15 628.41L577.94 628.83L577.73 629.26L577.5 629.68L577.27 630.09L577.02 630.5L576.76 630.91L576.5 631.3L576.22 631.7L575.94 632.09L575.64 632.46L575.34 632.84L575.03 633.2L574.71 633.55L574.38 633.9L574.05 634.24L573.71 634.56L573.36 634.88L573 635.2L572.64 635.5L572.27 635.79L571.9 636.08L571.52 636.35L571.13 636.62L570.74 636.87L570.34 637.12L569.93 637.36L569.53 637.59L569.11 637.81L568.69 638.01L568.27 638.21L567.84 638.4L567.4 638.58L566.97 638.75L566.52 638.91L566.08 639.05L565.63 639.19L565.17 639.32L564.72 639.44L564.26 639.54L563.79 639.64L563.33 639.72L562.86 639.79L562.39 639.86L561.91 639.91L561.44 639.95L560.96 639.98L560.48 639.99L560 640L80 640L79.52 639.99L79.04 639.98L78.56 639.95L78.09 639.91L77.61 639.86L77.14 639.79L76.67 639.72L76.21 639.64L75.74 639.54L75.28 639.44L74.83 639.32L74.37 639.19L73.92 639.05L73.48 638.91L73.03 638.75L72.6 638.58L72.16 638.4L71.73 638.21L71.31 638.01L70.89 637.81L70.47 637.59L70.07 637.36L69.66 637.12L69.26 636.87L68.87 636.62L68.48 636.35L68.1 636.08L67.73 635.79L67.36 635.5L67 635.2L66.64 634.89L66.29 634.57L65.95 634.24L65.62 633.9L65.29 633.55L64.97 633.2L64.66 632.84L64.36 632.47L64.06 632.09L63.78 631.7L63.5 631.31L63.24 630.91L62.98 630.5L62.73 630.09L62.5 629.68L62.27 629.26L62.06 628.84L61.85 628.41L61.66 627.98L61.48 627.54L61.3 627.1L61.14 626.66L60.99 626.21L60.85 625.76L60.72 625.31L60.6 624.86L60.49 624.4L60.39 623.94L60.31 623.48L60.23 623.02L60.16 622.55L60.11 622.08L60.07 621.62L60.03 621.15L60.01 620.68L60 620.21L60 619.74L60.01 619.27L60.04 618.8L60.07 618.33L60.11 617.86L60.17 617.39L60.24 616.92L60.32 616.45L60.41 615.98L60.51 615.52L60.62 615.05L60.74 614.59L60.88 614.13L61.02 613.67L66.34 597.74L70.67 584.73L95.71 509.61L101.03 493.67L101.24 493.07L101.47 492.47L101.72 491.88L101.99 491.31L102.27 490.74L102.57 490.19L102.89 489.65L103.22 489.12L103.57 488.6L103.93 488.09L104.31 487.6L104.7 487.12L105.1 486.65L105.52 486.2L105.96 485.76L106.4 485.33L106.86 484.92L107.33 484.52L107.81 484.14L108.3 483.77L108.81 483.42L109.32 483.09L109.85 482.77L110.38 482.46L110.93 482.17L111.48 481.9L112.05 481.65L112.62 481.41L113.2 481.19L113.78 480.99L114.38 480.8L114.98 480.64L115.59 480.49L116.2 480.36L116.82 480.25L117.45 480.16L118.08 480.09L118.72 480.04L119.36 480.01L120 480L160 480L160 300L160.13 293.42L160.53 286.9L161.19 280.45L162.1 274.08L163.26 267.8L164.66 261.6L166.3 255.49L168.17 249.48L170.27 243.58L172.59 237.78L175.13 232.1L177.89 226.53L180.85 221.09L184.01 215.78L187.36 210.61L190.91 205.57L194.65 200.68L198.56 195.93L202.65 191.34L206.92 186.92L211.34 182.65L215.93 178.56L220.68 174.65L225.57 170.91L230.61 167.36L235.78 164.01L241.09 160.85L246.53 157.89L252.1 155.13L257.78 152.59L263.58 150.27L269.48 148.17L275.49 146.3L281.6 144.66L287.8 143.26L294.08 142.1L300.45 141.19L306.9 140.53L313.42 140.13L320 140L326.58 140.13L333.1 140.53ZM107.74 600L532.26 600L505.59 520L134.41 520L107.74 600ZM313.41 180.3L310.14 180.68L306.89 181.2L303.65 181.88L300.43 182.7L297.22 183.68L294.03 184.8L290.85 186.08L287.69 187.5L284.54 189.08L281.41 190.8L278.29 192.68L275.19 194.7L272.11 196.88L269.04 199.2L265.98 201.68L262.95 204.3L259.92 207.08L256.91 210L253.92 213.08L250.95 216.3L247.98 219.68L245.04 223.2L242.11 226.88L239.19 230.7L236.29 234.68L233.41 238.8L230.54 243.08L227.69 247.5L224.85 252.08L222.03 256.8L219.22 261.67L216.43 266.7L213.65 271.88L210.89 277.2L208.14 282.68L205.41 288.3L202.7 294.08L200 300L200 480L440 480L440 300L439.9 295.06L439.6 290.17L439.11 285.34L438.43 280.56L437.56 275.85L436.51 271.2L435.28 266.62L433.87 262.11L432.3 257.68L430.56 253.33L428.65 249.07L426.59 244.9L424.37 240.82L422 236.83L419.48 232.95L416.82 229.17L414.02 225.5L411.08 221.95L408.01 218.51L404.81 215.19L401.49 211.99L398.05 208.92L394.5 205.98L390.83 203.18L387.05 200.52L383.17 198L379.18 195.63L375.1 193.41L370.93 191.35L366.67 189.44L362.32 187.7L357.89 186.13L353.38 184.72L348.8 183.49L344.15 182.44L339.44 181.57L334.66 180.89L329.83 180.4L324.94 180.1L320 180L316.7 180.08L313.41 180.3Z" id="aqF63MxKC"></path><path d="M340 80C340 74 340 26 340 20C340 8.96 331.05 0 320 0C308.96 0 300 8.96 300 20C300 26 300 74 300 80C300 91.05 308.96 100 320 100C331.05 100 340 91.05 340 80Z" id="a1LNlhKmVm"></path><path d="M540 280C528.95 280 520 288.96 520 300C520 311.05 528.95 320 540 320C546 320 594 320 600 320C611.05 320 620 311.05 620 300C620 288.96 611.05 280 600 280C588 280 546 280 540 280Z" id="aeGpY1jUU"></path><path d="M100 280C94 280 46 280 40 280C28.96 280 20 288.96 20 300C20 311.05 28.96 320 40 320C46 320 94 320 100 320C111.05 320 120 311.05 120 300C120 288.96 111.05 280 100 280Z" id="b6JxUQ2jF"></path><path d="M489.71 158.57C493.95 154.33 527.89 120.39 532.13 116.15C539.94 108.34 539.94 95.68 532.13 87.87C524.32 80.06 511.66 80.06 503.85 87.87C499.61 92.11 465.67 126.05 461.43 130.29C453.61 138.1 453.61 150.76 461.43 158.57C465.33 162.48 470.45 164.43 475.57 164.43C480.68 164.43 485.8 162.48 489.71 158.57Z" id="g27i9FP7ra"></path><path d="M164.43 164.43C169.55 164.43 174.67 162.48 178.58 158.57C186.39 150.76 186.39 138.1 178.58 130.29C174.33 126.05 140.39 92.11 136.15 87.87C128.34 80.06 115.68 80.06 107.87 87.87C100.06 95.68 100.06 108.34 107.87 116.15C110.7 118.98 124.84 133.12 150.29 158.57C156.31 162.48 161.02 164.43 164.43 164.43Z" id="c19e3VJUnl"></path><path d="M240 460L320 460C320 316 320 236 320 220C275.82 220 240 255.82 240 300C240 321.33 240 374.67 240 460Z" id="d44T6H4oiX"></path></defs><g><g><g><use xlink:href="#aqF63MxKC" opacity="1" fill="#ffffff" fill-opacity="1"></use><g><use xlink:href="#aqF63MxKC" opacity="1" fill-opacity="0" stroke="#000000" stroke-width="1" stroke-opacity="0"></use></g></g><g><use xlink:href="#a1LNlhKmVm" opacity="1" fill="#ffffff" fill-opacity="1"></use><g><use xlink:href="#a1LNlhKmVm" opacity="1" fill-opacity="0" stroke="#000000" stroke-width="1" stroke-opacity="0"></use></g></g><g><use xlink:href="#aeGpY1jUU" opacity="1" fill="#ffffff" fill-opacity="1"></use><g><use xlink:href="#aeGpY1jUU" opacity="1" fill-opacity="0" stroke="#000000" stroke-width="1" stroke-opacity="0"></use></g></g><g><use xlink:href="#b6JxUQ2jF" opacity="1" fill="#ffffff" fill-opacity="1"></use><g><use xlink:href="#b6JxUQ2jF" opacity="1" fill-opacity="0" stroke="#000000" stroke-width="1" stroke-opacity="0"></use></g></g><g><use xlink:href="#g27i9FP7ra" opacity="1" fill="#ffffff" fill-opacity="1"></use><g><use xlink:href="#g27i9FP7ra" opacity="1" fill-opacity="0" stroke="#000000" stroke-width="1" stroke-opacity="0"></use></g></g><g><use xlink:href="#c19e3VJUnl" opacity="1" fill="#ffffff" fill-opacity="1"></use><g><use xlink:href="#c19e3VJUnl" opacity="1" fill-opacity="0" stroke="#000000" stroke-width="1" stroke-opacity="0"></use></g></g><g><use xlink:href="#d44T6H4oiX" opacity="1" fill="#ffffff" fill-opacity="1"></use><g><use xlink:href="#d44T6H4oiX" opacity="1" fill-opacity="0" stroke="#000000" stroke-width="1" stroke-opacity="0"></use></g></g></g></g></svg>